<!-- <svg width="15" height="13" viewBox="0 0 15 13" fill="none" xmlns="http://www.w3.org/2000/svg">
<path fill-rule="evenodd" clip-rule="evenodd" d="M14.5832 2.25004C14.5832 1.47087 13.9457 0.833374 13.1665 0.833374H1.83317C1.054 0.833374 0.416504 1.47087 0.416504 2.25004V10.75C0.416504 11.5292 1.054 12.1667 1.83317 12.1667H13.1665C13.9457 12.1667 14.5832 11.5292 14.5832 10.75V2.25004ZM13.1665 2.25003L7.49982 5.7917L1.83316 2.25003H13.1665ZM13.1665 10.75H1.83316V3.6667L7.49982 7.20836L13.1665 3.6667V10.75Z" fill="#FFC94F"/>
</svg> -->
<svg width="15" height="13" fill="none" xmlns="http://www.w3.org/2000/svg"><path fill-rule="evenodd" clip-rule="evenodd" d="M14.58 2.25c0-.78-.63-1.42-1.41-1.42H1.83C1.05.83.42 1.47.42 2.25v8.5c0 .78.63 1.42 1.41 1.42h11.34c.78 0 1.41-.64 1.41-1.42v-8.5Zm-1.41 0L7.5 5.79 1.83 2.25h11.34Zm0 8.5H1.83V3.67L7.5 7.2l5.67-3.54v7.08Z" fill="#FFC94F"/></svg>