<svg width="16" height="16" fill="none" xmlns="http://www.w3.org/2000/svg"><g clip-path="url(#a)"><path d="M.8 2.33A1.53 1.53 0 0 1 2.33.8h2.52a.77.77 0 0 1 .72.52l1.15 3.45a.77.77 0 0 1-.38.93l-1.73.86a8.47 8.47 0 0 0 4.23 4.23l.86-1.73a.77.77 0 0 1 .93-.38l3.45 1.15a.77.77 0 0 1 .52.72v2.52a1.53 1.53 0 0 1-1.53 1.53h-.77A11.5 11.5 0 0 1 .8 3.1v-.77Z" stroke="#FFC94F" stroke-width="2" stroke-linecap="round" stroke-linejoin="round"/></g><defs><clipPath id="a"><path fill="#fff" d="M0 0h16v16H0z"/></clipPath></defs></svg>
