<!-- <svg width="16" height="16" viewBox="0 0 16 16" fill="none" xmlns="http://www.w3.org/2000/svg">
<g clip-path="url(#clip0_1_558)">
<path d="M0.799805 2.33338C0.799805 1.92672 0.961349 1.5367 1.24891 1.24915C1.53646 0.961593 1.92648 0.800049 2.33314 0.800049H4.8478C5.00864 0.800169 5.16537 0.850873 5.29581 0.944985C5.42624 1.0391 5.52378 1.17185 5.5746 1.32445L6.72307 4.76908C6.78126 4.94414 6.77438 5.13431 6.70369 5.30471C6.633 5.4751 6.50323 5.6143 6.3382 5.69674L4.60784 6.56308C5.45601 8.44029 6.95956 9.94381 8.83676 10.792L9.70308 9.06165C9.78556 8.89661 9.92476 8.76685 10.0952 8.69613C10.2656 8.62549 10.4557 8.61861 10.6308 8.67677L14.0754 9.82525C14.2281 9.87613 14.361 9.97373 14.4551 10.1044C14.5492 10.2349 14.5998 10.3918 14.5998 10.5528V13.0667C14.5998 13.4734 14.4383 13.8634 14.1507 14.1509C13.8632 14.4385 13.4732 14.6 13.0664 14.6H12.2998C5.94874 14.6 0.799805 9.45109 0.799805 3.10005V2.33338Z" stroke="#FFC94F" stroke-width="2" stroke-linecap="round" stroke-linejoin="round"/>
</g>
<defs>
<clipPath id="clip0_1_558">
<rect width="16" height="16" fill="white"/>
</clipPath>
</defs>
</svg> -->
<svg width="16" height="16" fill="none" xmlns="http://www.w3.org/2000/svg"><g clip-path="url(#a)"><path d="M.8 2.33A1.53 1.53 0 0 1 2.33.8h2.52a.77.77 0 0 1 .72.52l1.15 3.45a.77.77 0 0 1-.38.93l-1.73.86a8.47 8.47 0 0 0 4.23 4.23l.86-1.73a.77.77 0 0 1 .93-.38l3.45 1.15a.77.77 0 0 1 .52.72v2.52a1.53 1.53 0 0 1-1.53 1.53h-.77A11.5 11.5 0 0 1 .8 3.1v-.77Z" stroke="#FFC94F" stroke-width="2" stroke-linecap="round" stroke-linejoin="round"/></g><defs><clipPath id="a"><path fill="#fff" d="M0 0h16v16H0z"/></clipPath></defs></svg>
