<svg width="13" height="14" fill="none" xmlns="http://www.w3.org/2000/svg"><path d="M1.2 11.03h2.06v1.74a.28.28 0 0 0 .3.3h1.52a.3.3 0 0 0 .21-.09.27.27 0 0 0 .09-.2v-1.75H10c.09 0 .16-.02.21-.08a.28.28 0 0 0 .08-.2V9.57a.28.28 0 0 0-.29-.29H5.38V8.22H8.5c1.22 0 2.22-.37 3-1.1a3.76 3.76 0 0 0 1.15-2.86c0-1.16-.39-2.11-1.16-2.85a4.17 4.17 0 0 0-3-1.1H3.56a.29.29 0 0 0-.2.08.28.28 0 0 0-.1.2v5.7H1.2a.28.28 0 0 0-.2.09.28.28 0 0 0-.09.2v1.35a.28.28 0 0 0 .3.3h2.05v1.06H1.2a.28.28 0 0 0-.3.29v1.16a.28.28 0 0 0 .3.3Zm4.18-8.8H8.3c.65 0 1.17.2 1.57.57.4.37.6.86.6 1.46s-.2 1.1-.6 1.47c-.4.38-.92.56-1.57.56H5.38V2.23Z" fill="#535353"/></svg>