<svg width="164" height="164" fill="none" xmlns="http://www.w3.org/2000/svg"><path d="M92.25 112.75H61.5c0-30.75 16.4-41 27.67-47.15 4.1-2.05 7.18-4.1 9.23-6.15 5.13-5.13 3.07-12.3 2.05-14.35-3.08-7.18-10.25-14.35-23.58-14.35-21.52 0-25.62 19.48-25.62 23.58l-30.75-4.1C22.55 32.8 37.92 0 76.88 0c23.57 0 44.07 13.32 52.27 32.8 7.17 17.43 4.1 35.88-8.2 48.17-5.13 5.13-11.28 8.2-16.4 11.28-9.22 5.13-12.3 10.25-12.3 20.5ZM97.38 143.5a20.5 20.5 0 1 1-41 .01 20.5 20.5 0 0 1 41-.01Z" fill="#3D4F64" fill-opacity=".15"/></svg>