<svg width="38" height="38" fill="none" xmlns="http://www.w3.org/2000/svg"><path d="M11.875 4.7472a.594.594 0 0 0-.5937-.5938H8.3125v2.8904L3.0857 3.5597 8.3125.0755V2.966h2.9688c.982 0 1.7812.7992 1.7812 1.7813v1.7812H11.875V4.7472Zm-4.75-2.4534L5.2268 3.5597 7.125 4.8255V2.2938ZM13.0625 7.716H11.875v1.1874h1.1875V7.716Z" fill="#535353"/><path d="M2.1238 21.3722c.7238 0 1.3704-.4323 1.6596-1.1305.282-.6739.1318-1.4411-.3818-1.9547l-1.0824-1.0824 4.2002-4.2001 1.0824 1.0824c.203.2036.447.3473.7101.4316v-3.8338a.594.594 0 0 0-.5937-.5938H5.9369v2.8904L.7107 9.4972 5.9375 6.013v2.8903h1.7813c.982 0 1.7812.7992 1.7812 1.7813v3.8c.029-.0107.0588-.0172.0873-.0297a1.7764 1.7764 0 0 0 1.1002-1.6465v-1.5301h1.1875v-1.1875h1.1875v1.1875H14.25v-1.1875h1.1875v1.1875h1.1875v1.5301c0 .7238.4322 1.3704 1.1305 1.6595.0184.0078.038.0119.057.019V8.3097c0-.773.4982-1.4262 1.1875-1.672V4.1534h-2.9688a.594.594 0 0 0-.5937.5938v1.7812H14.25V4.7472c0-.982.7992-1.7813 1.7812-1.7813H19V.0755l5.2268 3.4842-4.4531 2.9687h9.9138V3.638l5.2268 3.4842-2.682 1.7877c-.0231-.0005-.0445-.0065-.0677-.0065h-2.4771V7.716H19.5938A.594.594 0 0 0 19 8.3097v6.2094c.225-.073.4317-.1989.6163-.3592-.0113.1478-.0225.2951-.0225.4459a5.75 5.75 0 0 0 .0748.9209c-.7387.3325-1.5978.361-2.3988.0261a2.9626 2.9626 0 0 1-1.8323-2.7443v-.3426H11.875v.3426c0 1.2053-.7196 2.283-1.8602 2.7556-1.1216.4679-2.3976.2185-3.2526-.6377l-.2428-.2428-2.521 2.521.2428.2429c.855.855 1.1055 2.1321.6264 3.2793-.4608 1.1132-1.5385 1.8329-2.7438 1.8329h-.3426v3.5625h.3426c1.2053 0 2.283.7196 2.7556 1.8602.468 1.1204.2173 2.397-.6377 3.2526l-.2428.2428 2.521 2.5211.243-.2429c.8543-.8544 2.1297-1.1055 3.2792-.6264 1.1133.4608 1.8329 1.5384 1.8329 2.7437v.3426h4.1562v-3.9092a8.2915 8.2915 0 0 1-2.375.3467c-4.5837 0-8.3125-3.7287-8.3125-8.3125 0-4.5837 3.7288-8.3125 8.3125-8.3125 2.3329 0 4.4413.9696 5.9524 2.5223-.003-.0493-.0148-.0968-.0148-.1473 0-1.3098 1.0651-2.375 2.375-2.375H23.3908c1.1418 0 2.201-.567 2.8339-1.517l.4941-.741.494.741a3.3986 3.3986 0 0 0 2.8339 1.517h1.4221c1.3098 0 2.375 1.0652 2.375 2.375s-1.0652 2.375-2.375 2.375h-.1562c-.3082 1.1917-1.0664 2.2016-2.0847 2.8381l.3456 1.3805 2.4991.3569c.9126.1312 1.8002.4696 2.5674.9808a6.2012 6.2012 0 0 1 2.7662 5.1692v5.8995H10.6875v-1.5301c0-.7237-.4322-1.3703-1.1305-1.6595-.674-.282-1.441-.1324-1.9546.3818L6.52 35.678l-4.2002-4.2002 1.0824-1.0824c.513-.5136.6632-1.2807.3687-1.9855a1.7777 1.7777 0 0 0-1.647-1.1002H.5937v-5.9375h1.53ZM4.75 8.2313 2.8518 9.4972 4.75 10.763V8.2313Zm15.4375-3.4057 1.8982-1.266-1.8982-1.2658v2.5317ZM30.875 8.388l1.8982-1.266-1.8982-1.2658V8.388Zm-6.6904 17.7626-.7327.1045.7024 1.9006 1.5022-.9013-1.4719-1.1038Zm-2.6511.3794c-.0534.0077-.1051.0225-.1585.032v3.2134l2.2491.3753-1.3757-3.7228-.7149.1021Zm5.1853 1.4719-2.1459 1.2878 2.1459 5.8063 2.1458-5.8063-2.1458-1.2878Zm.8526 8.2139h1.178l1.9439-3.4016-1.4594-1.0948-1.6625 4.4964Zm-3.3672-4.497-1.4594 1.0948 1.9433 3.4022h1.178l-1.6619-4.497Zm-3.0115.7736 1.6845-1.2629-2.6897-.4477v-3.8534c-.2535.1134-.5005.241-.7309.3942a5.0157 5.0157 0 0 0-2.2378 4.1812v4.712h6.1019l-2.128-3.7234Zm-2.8274-7.5578H14.25V29.05c2.1446-.2696 3.8457-1.9707 4.1153-4.1153Zm-5.3028 0H8.9472c.269 2.1446 1.9707 3.8457 4.1153 4.1153v-4.1153Zm0-1.1875v-4.1153c-2.1446.269-3.8457 1.9706-4.1153 4.1153h4.1153Zm1.1875 0h4.1153c-.269-2.1447-1.9707-3.8457-4.1153-4.1153v4.1153Zm-.5938-6.5313c-3.9288 0-7.125 3.1962-7.125 7.125 0 3.9289 3.1962 7.125 7.125 7.125.8289 0 1.6341-.1484 2.4035-.4245a6.2164 6.2164 0 0 1 .2702-1.4066c-.8045.4085-1.7112.6436-2.6737.6436-3.2739 0-5.9375-2.6635-5.9375-5.9375 0-3.2739 2.6636-5.9375 5.9375-5.9375 3.274 0 5.9376 2.6636 5.9376 5.9375 0 .5795-.0873 1.1388-.2429 1.6691a6.286 6.286 0 0 1 1.3276-.5166c.0612-.38.1027-.7642.1027-1.1525 0-3.9288-3.1961-7.125-7.125-7.125Zm8.3126 7.125c0 .3129-.0196.6252-.0541.9346l1.9499-.2785.3456-1.3805c-1.0183-.637-1.776-1.6464-2.0847-2.8381h-.1567a2.366 2.366 0 0 1-.9002-.1793c.5712 1.1264.9002 2.3952.9002 3.7418Zm-1.1876-5.9375c0 .6549.5326 1.1875 1.1876 1.1875v-2.375c-.655 0-1.1876.5326-1.1876 1.1875Zm11.875 0c0-.6549-.5325-1.1875-1.1874-1.1875v2.375c.6549 0 1.1874-.5326 1.1874-1.1875Zm-2.375 1.1875v-2.375h-.2345c-1.2724 0-2.4694-.5225-3.3279-1.4268a4.5833 4.5833 0 0 1-3.328 1.4268h-.2346v2.375c0 1.9647 1.5978 3.5625 3.5626 3.5625 1.9647 0 3.5624-1.5978 3.5624-3.5625Zm-3.5624 4.75a4.7452 4.7452 0 0 1-1.4126-.2143l-.2903 1.1637 1.7029 1.2772 1.7034-1.2778-.2903-1.1637a4.733 4.733 0 0 1-1.4131.2149Zm2.5341 1.8098-1.4719 1.1038 1.5022.9013.7024-1.9006-.7327-.1045Zm1.9362.2767-1.3757 3.7228 2.2491-.3753v-3.2133c-.0528-.0096-.1051-.0244-.1585-.0321l-.7149-.1021Zm5.0297 5.0765a5.0143 5.0143 0 0 0-2.2379-4.1812c-.2304-.1532-.4774-.2808-.7309-.3942v3.8534l-2.6903.4477 1.6845 1.2629-2.1274 3.7234h6.102v-4.712Z" fill="#535353"/><path d="M15.4375 7.716H14.25v1.1874h1.1875V7.716Z" fill="#535353"/></svg>