<svg width="33" height="33" fill="none" xmlns="http://www.w3.org/2000/svg"><g clip-path="url(#a)"><path d="M30.87 22.35V14.9h-3.83c-.13-.36-.28-.73-.46-1.09l2.72-2.71-4.03-4.03-1.32.05v6.18l-1.23 1.23a7.42 7.42 0 0 1-1.43 9.8v.15h-.19a7.41 7.41 0 0 1-9.2 0h-.19v-.15a7.43 7.43 0 0 1-1.5-9.68l-2.03-1.77c-.46-.4-.73-1-.73-1.6V7.7l-.37.02L3.7 11.1l2.72 2.71c-.18.36-.33.73-.46 1.09H2.13v7.45h3.83c.13.37.28.73.46 1.09L3.7 26.15l5.27 5.27 2.72-2.71c.36.17.72.33 1.08.45V33h7.46v-3.83c.36-.13.72-.29 1.08-.46l2.72 2.71 5.27-5.27-2.72-2.7c.18-.37.33-.73.46-1.1h3.83Z" fill="#FFC94F"/><path d="M31.94 4.26c.58 0 1.06-.48 1.06-1.07V1.06L32.76.9a5.28 5.28 0 0 0-7.56 1.76h-.72a2.12 2.12 0 0 0-3.73-1.4 2.12 2.12 0 0 0-3.19 0 2.12 2.12 0 0 0-3.19 0 2.12 2.12 0 0 0-3.72 1.4H7.8A5.29 5.29 0 0 0 .24.9L0 1.06v2.13c0 .59.48 1.07 1.06 1.07h2.67v2.12H1.06C.48 6.38 0 6.86 0 7.45v2.13l.24.16a5.28 5.28 0 0 0 6.68-.64v2.17c0 .77.33 1.5.9 2l1.7 1.49A7.97 7.97 0 0 0 16.5 26.6a8 8 0 0 0 6.9-12l1.08-1.09V7.98h.72a5.29 5.29 0 0 0 7.56 1.76l.24-.16V7.45c0-.59-.48-1.07-1.06-1.07h-2.67V4.26h2.67Zm-9.59-2.67c.6 0 1.07.48 1.07 1.07V9.05a1.07 1.07 0 0 1-2.13 0v-6.4c0-.58.48-1.06 1.06-1.06Zm-3.19 0c.59 0 1.07.48 1.07 1.07v6.39a1.07 1.07 0 0 1-2.13 0v-6.4c0-.58.47-1.06 1.06-1.06Zm-3.2 0c.6 0 1.07.48 1.07 1.07v6.39a1.07 1.07 0 0 1-2.13 0v-6.4c0-.58.48-1.06 1.07-1.06Zm-4.25 1.07a1.07 1.07 0 0 1 2.13 0v6.39c0 .46-.3.86-.73 1l-1.4-1.24V2.65ZM3.19 9.58c-.75 0-1.48-.2-2.13-.58V7.45H4.8V3.19H1.06V1.64A4.23 4.23 0 0 1 7 3.44l.15.28h3.5v.94a2.4 2.4 0 0 0-3.73 1.99v.7a4.23 4.23 0 0 1-3.73 2.23Zm6.4 9.05c0-1.1.25-2.19.75-3.16l.84.74v6.83c-1-1.2-1.6-2.74-1.6-4.41Zm13.83 0c0 1.67-.6 3.21-1.6 4.41V16.2l.8-.8c.52 1 .8 2.1.8 3.24Zm-2.66-2.89v5.02h-1.07v1.06h1.07v2.25a6.88 6.88 0 0 1-8.52 0v-2.25h6.39v-1.06h-6.39v-5.04l-3.71-3.25a1.6 1.6 0 0 1-.55-1.2V6.65a1.33 1.33 0 0 1 2.67 0v2.63l4.96 4.42.71-.8-2.36-2.1c.15-.1.3-.22.42-.35a2.12 2.12 0 0 0 3.18-.01 2.12 2.12 0 0 0 3.2 0 2.1 2.1 0 0 0 2.66.44v2.2l-2.66 2.66Zm11.18-8.3V9A4.24 4.24 0 0 1 26 7.2l-.15-.28h-1.37v-3.2h1.37l.15-.3a4.24 4.24 0 0 1 5.94-1.78v1.55H28.2v4.26h3.73Z" fill="#535353"/></g><defs><clipPath id="a"><path fill="#fff" d="M0 0h33v33H0z"/></clipPath></defs></svg>